<svg width="150" height="57" viewBox="0 0 150 57" fill="none" xmlns="http://www.w3.org/2000/svg">
<path d="M58.2781 17.1758C59.5892 17.1758 60.652 18.3017 60.6521 19.6904V46.2136C60.6521 46.2561 60.6513 46.2983 60.6493 46.3403L60.6488 56.0593C60.6488 56.4526 60.2414 56.694 59.925 56.4881L48.0046 48.7282H4.01704C2.70608 48.728 1.64314 47.6022 1.64307 46.2136V18.1816C1.64314 17.6263 2.06837 17.1759 2.59266 17.1758H58.2781Z" fill="#C40C0C"/>
<path d="M1.26497 13.0863C1.2539 12.8381 1.41566 12.6185 1.64568 12.5695L57.5718 0.662531C57.8289 0.607797 58.0792 0.784176 58.1308 1.05649L59.4949 8.245C59.5463 8.51577 59.3819 8.77977 59.1267 8.83636L1.64399 21.5835L1.26497 13.0863Z" fill="#C40C0C"/>
<path d="M36.0928 7.77805C35.938 7.64355 36.0002 7.37887 36.1966 7.33707L41.9053 6.12164C41.9752 6.10677 42.0476 6.12589 42.1026 6.17372L45.5586 9.17534C45.7135 9.30985 45.6512 9.57452 45.4549 9.61632L39.7461 10.8318C39.6763 10.8466 39.6039 10.8275 39.5488 10.7797L36.0928 7.77805Z" fill="white"/>
<path d="M47.4541 5.36008C47.2993 5.22558 47.3616 4.96091 47.5579 4.9191L53.2667 3.70367C53.3365 3.68881 53.4089 3.70792 53.464 3.75575L56.9199 6.75737C57.0748 6.89188 57.0125 7.15655 56.8162 7.19835L51.1074 8.41379C51.0376 8.42865 50.9652 8.40953 50.9101 8.36171L47.4541 5.36008Z" fill="white"/>
<path d="M75.7942 44.3905C74.9103 44.3905 74.0779 44.2442 73.2968 43.9515C72.5157 43.6588 71.8785 43.2491 71.3852 42.7222V44.1564H66.082V22.439H71.3852V29.5513C71.8168 29.083 72.4232 28.683 73.2043 28.3513C74.0059 28.0001 74.9206 27.805 75.9483 27.7659C77.0583 27.7269 78.0861 27.883 79.0316 28.2342C79.9977 28.5855 80.8404 29.122 81.5598 29.844C82.2587 30.566 82.8034 31.4635 83.1939 32.5367C83.605 33.6099 83.8208 34.8294 83.8414 36.1953C83.862 37.6197 83.6667 38.849 83.2556 39.8832C82.8445 40.9173 82.2792 41.7661 81.5598 42.4295C80.8198 43.1125 79.9565 43.61 78.9699 43.9222C77.9833 44.2344 76.9247 44.3905 75.7942 44.3905ZM74.7767 39.9124C75.2495 39.9515 75.712 39.9124 76.1642 39.7954C76.6369 39.6783 77.0583 39.4636 77.4283 39.1514C77.7983 38.8392 78.0963 38.4295 78.3224 37.9222C78.5485 37.4148 78.6616 36.7904 78.6616 36.049C78.6616 35.3855 78.5485 34.8197 78.3224 34.3514C78.1169 33.8636 77.8497 33.4636 77.5208 33.1514C77.1714 32.8587 76.7911 32.6343 76.38 32.4782C75.9689 32.3221 75.5578 32.244 75.1467 32.244C74.0984 32.244 73.2351 32.6343 72.5568 33.4148C71.899 34.1758 71.5702 35.2002 71.5702 36.488C71.5702 37.4051 71.8477 38.1953 72.4026 38.8588C72.9576 39.5027 73.749 39.8539 74.7767 39.9124Z" fill="#C40C0C"/>
<path d="M94.6182 39.9124C95.646 39.9124 96.5607 39.6002 97.3623 38.9758C98.1639 38.3319 98.5648 37.3661 98.5648 36.0782C98.5648 34.8489 98.1639 33.9026 97.3623 33.2392C96.5607 32.5757 95.646 32.244 94.6182 32.244C93.611 32.244 92.7169 32.5757 91.9358 33.2392C91.1753 33.9026 90.795 34.8489 90.795 36.0782C90.795 37.3661 91.1753 38.3319 91.9358 38.9758C92.7169 39.6002 93.611 39.9124 94.6182 39.9124ZM94.6799 44.5369C93.3233 44.5369 92.0797 44.3418 90.9492 43.9515C89.8187 43.5417 88.8423 42.9661 88.0201 42.2247C87.2185 41.4832 86.5916 40.5954 86.1394 39.5612C85.6872 38.527 85.4611 37.3661 85.4611 36.0782C85.4611 34.7709 85.6974 33.5904 86.1702 32.5367C86.6635 31.483 87.3315 30.5952 88.1743 29.8733C88.9965 29.1513 89.9626 28.5952 91.0725 28.205C92.203 27.8147 93.4055 27.6196 94.6799 27.6196C95.9337 27.6196 97.1156 27.8147 98.2256 28.205C99.3561 28.5952 100.343 29.1513 101.185 29.8733C102.008 30.5952 102.665 31.483 103.159 32.5367C103.652 33.5904 103.899 34.7709 103.899 36.0782C103.899 37.3661 103.662 38.527 103.19 39.5612C102.737 40.5954 102.11 41.4832 101.309 42.2247C100.487 42.9661 99.5103 43.5417 98.3798 43.9515C97.2492 44.3418 96.016 44.5369 94.6799 44.5369Z" fill="#C40C0C"/>
<path d="M105.917 22H111.282V44.1564H105.917V22Z" fill="#C40C0C"/>
<path d="M125.862 44.1564V42.7515C125.348 43.2588 124.701 43.6588 123.919 43.9515C123.159 44.2247 122.337 44.3613 121.453 44.3613C120.322 44.3613 119.264 44.1954 118.277 43.8637C117.291 43.532 116.427 43.0247 115.687 42.3417C114.968 41.6588 114.403 40.8002 113.991 39.7661C113.601 38.7124 113.426 37.4636 113.467 36.0197C113.508 34.5953 113.755 33.3562 114.207 32.3026C114.68 31.2294 115.297 30.3513 116.057 29.6684C116.797 28.9855 117.65 28.4879 118.616 28.1757C119.603 27.844 120.62 27.6976 121.669 27.7367C122.553 27.7952 123.354 27.9903 124.074 28.322C124.793 28.6537 125.389 29.0538 125.862 29.522V28.0586H131.196V44.1564H125.862ZM122.1 39.8832C123.005 39.8832 123.776 39.6783 124.413 39.2685C125.071 38.8392 125.492 38.1758 125.677 37.2782C125.677 37.2197 125.687 37.0929 125.708 36.8978C125.728 36.6831 125.739 36.5465 125.739 36.488C125.739 35.1221 125.399 34.0684 124.721 33.327C124.043 32.5855 123.21 32.2148 122.224 32.2148C121.381 32.1757 120.6 32.4782 119.88 33.1221C119.161 33.7465 118.801 34.7124 118.801 36.0197C118.801 37.3075 119.11 38.2734 119.726 38.9173C120.363 39.5612 121.155 39.8832 122.1 39.8832Z" fill="#C40C0C"/>
<path d="M133.338 36.1953C133.338 34.8489 133.544 33.6392 133.955 32.566C134.366 31.4928 134.941 30.5757 135.681 29.8147C136.421 29.0733 137.305 28.4976 138.333 28.0879C139.381 27.6781 140.532 27.4732 141.786 27.4732C143.061 27.4732 144.191 27.6879 145.178 28.1172C146.185 28.5464 147.038 29.1513 147.737 29.9318C148.415 30.6928 148.939 31.6196 149.309 32.7123C149.679 33.7855 149.864 34.966 149.864 36.2538L149.741 37.8636H138.611C138.672 38.6246 139.032 39.2002 139.69 39.5905C140.347 39.9807 141.118 40.1758 142.002 40.1758C142.804 40.1758 143.492 40.0295 144.068 39.7368C144.664 39.4441 145.209 39.0051 145.702 38.4197L149.186 41.2881C148.261 42.4783 147.182 43.3564 145.949 43.9222C144.715 44.4686 143.328 44.7418 141.786 44.7418C140.532 44.7418 139.381 44.5466 138.333 44.1564C137.305 43.7661 136.411 43.2003 135.651 42.4588C134.89 41.7173 134.304 40.8198 133.893 39.7661C133.482 38.7124 133.297 37.5222 133.338 36.1953ZM144.654 33.9416C144.53 33.2782 144.191 32.7806 143.636 32.4489C143.102 32.1172 142.495 31.9513 141.817 31.9513C141.036 31.9513 140.378 32.127 139.844 32.4782C139.309 32.8294 139.001 33.3172 138.919 33.9416H144.654Z" fill="#C40C0C"/>
<path d="M19.1963 44.7839L15.0819 30.0143H14.9283L14.8055 44.7839H9.18652L10.5989 22H16.8935L21.7141 37.8136H21.8676L26.719 22H33.0135L34.426 44.7839H28.807L28.6841 30.0143H28.5306L24.4162 44.7839H19.1963Z" fill="white"/>
<path d="M45.082 40.3315C46.1055 40.3315 47.0164 40.004 47.8147 39.3489C48.6131 38.6734 49.0122 37.6601 49.0122 36.309C49.0122 35.0194 48.6131 34.0265 47.8147 33.3305C47.0164 32.6345 46.1055 32.2865 45.082 32.2865C44.079 32.2865 43.1885 32.6345 42.4107 33.3305C41.6533 34.0265 41.2746 35.0194 41.2746 36.309C41.2746 37.6601 41.6533 38.6734 42.4107 39.3489C43.1885 40.004 44.079 40.3315 45.082 40.3315ZM45.1434 45.1831C43.7924 45.1831 42.554 44.9784 41.4281 44.569C40.3023 44.1391 39.3299 43.5352 38.5111 42.7573C37.7128 41.9794 37.0885 41.048 36.6381 39.963C36.1878 38.8781 35.9626 37.6601 35.9626 36.309C35.9626 34.9375 36.198 33.699 36.6689 32.5936C37.1601 31.4882 37.8254 30.5568 38.6647 29.7993C39.4835 29.0419 40.4456 28.4585 41.5509 28.0491C42.6768 27.6397 43.8743 27.435 45.1434 27.435C46.3921 27.435 47.5691 27.6397 48.6745 28.0491C49.8003 28.4585 50.7829 29.0419 51.6221 29.7993C52.4409 30.5568 53.096 31.4882 53.5873 32.5936C54.0785 33.699 54.3242 34.9375 54.3242 36.309C54.3242 37.6601 54.0888 38.8781 53.618 39.963C53.1676 41.048 52.5433 41.9794 51.745 42.7573C50.9262 43.5352 49.9538 44.1391 48.828 44.569C47.7021 44.9784 46.4739 45.1831 45.1434 45.1831Z" fill="white"/>
</svg>
