<svg width="19" height="19" viewBox="0 0 19 19" fill="none" xmlns="http://www.w3.org/2000/svg">
<path d="M7.99997 15.7519C5.83716 15.7519 4.00479 15.0009 2.50287 13.499C1.00096 11.9971 0.25 10.1647 0.25 8.00193C0.25 5.83911 1.00096 4.00675 2.50287 2.50483C4.00479 1.00291 5.83716 0.251953 7.99997 0.251953C10.1628 0.251953 11.9952 1.00291 13.4971 2.50483C14.999 4.00675 15.75 5.83911 15.75 8.00193C15.75 8.96091 15.5951 9.84329 15.2855 10.6491C14.9759 11.4548 14.5384 12.2122 13.973 12.9212L18.4154 17.3635C18.5602 17.5084 18.6311 17.684 18.6279 17.8904C18.6247 18.0968 18.5538 18.2725 18.4154 18.4173C18.2705 18.5622 18.0933 18.6346 17.8836 18.6346C17.674 18.6346 17.4968 18.5622 17.3519 18.4173L12.9096 13.975C12.2006 14.5404 11.4448 14.9779 10.6423 15.2875C9.83973 15.5971 8.95896 15.7519 7.99997 15.7519ZM7.99997 14.252C9.73074 14.252 11.2051 13.643 12.4231 12.425C13.641 11.2071 14.25 9.7327 14.25 8.00193C14.25 6.27116 13.641 4.7968 12.4231 3.57883C11.2051 2.36088 9.73074 1.7519 7.99997 1.7519C6.26921 1.7519 4.79484 2.36088 3.57687 3.57883C2.35892 4.7968 1.74995 6.27116 1.74995 8.00193C1.74995 9.7327 2.35892 11.2071 3.57687 12.425C4.79484 13.643 6.26921 14.252 7.99997 14.252Z" fill="#9FA6B2"/>
</svg>
